# xmcd
# 
# Track frame offsets:
#     150
#     3604
#     23652
#     42622
#     66492
#     89607
#     109621
#     144753
#     169216
#     190539
#     203508
#     229118
#     245599
#     286363
# 
# Disc length: 4415
# 
# Revision: 5
# Processed by: cddbd v1.5.2PL0 Copyright (c) Steve Scherf et al.
# Submitted via: fre:ac v1.0.17
# 
DISCID=bf113d0e
DTITLE=鍾一匡 and 鍾一諾 - 鐘聲 The Chimes
DYEAR=2009
DGENRE=Gospel
TTITLE0=騷靈頌I Soul Serenade, Part I
TTITLE1=鐘聲 The Chimes
TTITLE2=感謝神 Thanks be to God
TTITLE3=赤子之心 A Child at Heart
TTITLE4=行公義、好憐憫 To Do Justly, To Love Mercy
TTITLE5=夢想...有一天 I Have a Dream
TTITLE6=騷靈頌II Soul Serenade, Part II
TTITLE7=心中亮光 Light in My Heart
TTITLE8=好撒瑪利亞人 The Good Samaritan
TTITLE9=愛的經典 The Classics of Love
TTITLE10=心在顫抖 Tremblin' Hearts
TTITLE11=回到主身邊 Back to Heaven
TTITLE12=天明不再有淚 That Morn Shall Tearless be
TTITLE13=I Have a Dream (English Version)
EXTD=
EXTT0=
EXTT1=
EXTT2=
EXTT3=
EXTT4=
EXTT5=
EXTT6=
EXTT7=
EXTT8=
EXTT9=
EXTT10=
EXTT11=
EXTT12=
EXTT13=
PLAYORDER=
